<svg width="13" height="7" viewBox="0 0 13 7" fill="none" xmlns="http://www.w3.org/2000/svg">
<path d="M11.2522 0.834532L6.86003 5.15734C6.76419 5.25215 6.63483 5.30533 6.50003 5.30533C6.36522 5.30533 6.23586 5.25215 6.14003 5.15734L1.74784 0.83547C1.65141 0.740712 1.52163 0.687615 1.38643 0.687615C1.25124 0.687615 1.12145 0.740712 1.02503 0.83547C0.977543 0.881762 0.939806 0.937088 0.91404 0.998192C0.888274 1.0593 0.875 1.12494 0.875 1.19125C0.875 1.25757 0.888274 1.32321 0.91404 1.38431C0.939806 1.44541 0.977543 1.50074 1.02503 1.54703L5.41628 5.86891C5.70552 6.1529 6.09467 6.31201 6.50003 6.31201C6.90538 6.31201 7.29454 6.1529 7.58378 5.86891L11.975 1.54703C12.0227 1.50073 12.0605 1.44534 12.0864 1.38415C12.1122 1.32296 12.1255 1.25721 12.1255 1.19078C12.1255 1.12436 12.1122 1.0586 12.0864 0.997414C12.0605 0.936224 12.0227 0.880838 11.975 0.834532C11.8786 0.739774 11.7488 0.686677 11.6136 0.686677C11.4784 0.686677 11.3486 0.739774 11.2522 0.834532Z" fill="#939191"/>
</svg>
