<svg width="13" height="7" viewBox="0 0 13 7" fill="none" xmlns="http://www.w3.org/2000/svg">
<path d="M1.74778 6.16547L6.13997 1.84266C6.23581 1.74785 6.36517 1.69467 6.49997 1.69467C6.63478 1.69467 6.76414 1.74785 6.85997 1.84266L11.2522 6.16453C11.3486 6.25929 11.4784 6.31238 11.6136 6.31238C11.7488 6.31238 11.8785 6.25929 11.975 6.16453C12.0225 6.11824 12.0602 6.06291 12.086 6.00181C12.1117 5.9407 12.125 5.87506 12.125 5.80875C12.125 5.74243 12.1117 5.67679 12.086 5.61569C12.0602 5.55459 12.0225 5.49926 11.975 5.45297L7.58372 1.13109C7.29448 0.8471 6.90533 0.687988 6.49997 0.687988C6.09462 0.687988 5.70546 0.8471 5.41622 1.13109L1.02497 5.45297C0.977345 5.49927 0.939488 5.55466 0.913637 5.61585C0.887785 5.67704 0.874466 5.74279 0.874466 5.80922C0.874466 5.87564 0.887785 5.9414 0.913637 6.00259C0.939488 6.06378 0.977345 6.11916 1.02497 6.16547C1.1214 6.26023 1.25119 6.31332 1.38638 6.31332C1.52157 6.31332 1.65136 6.26023 1.74778 6.16547Z" fill="#999999"/>
</svg>
