<svg width="150" height="150" viewBox="0 0 150 150" fill="none" xmlns="http://www.w3.org/2000/svg">
<path fill-rule="evenodd" clip-rule="evenodd" d="M42.4964 150H107.496C132.923 150 150 132.164 150 105.625V44.3754C150 17.8358 132.923 0 107.504 0H42.4964C17.0767 0 0 17.8358 0 44.3754V105.625C0 132.164 17.0767 150 42.4964 150ZM48.7414 67.5C38.4016 67.5 30 59.087 30 48.75C30 38.413 38.4016 30 48.7414 30C59.0737 30 67.4829 38.413 67.4829 48.75C67.4829 59.087 59.0737 67.5 48.7414 67.5ZM133.656 97.0046C136.168 103.444 134.863 111.184 132.178 117.562C128.995 125.147 122.901 130.89 115.224 133.398C111.815 134.512 108.24 135 104.673 135H41.4648C35.1749 135 29.6091 133.491 25.0463 130.681C22.1879 128.916 21.6826 124.845 23.8019 122.206C27.3465 117.794 30.8459 113.367 34.3755 108.901C41.1028 100.356 45.6355 97.8793 50.6734 100.054C52.7172 100.952 54.7686 102.299 56.8803 103.723C62.5065 107.546 70.3274 112.802 80.6295 107.098C87.6795 103.149 91.7685 96.376 95.3293 90.4779L95.3889 90.3793C95.641 89.9659 95.8908 89.5525 96.1399 89.1403L96.1406 89.1392C97.3373 87.1591 98.518 85.2055 99.8537 83.4056C101.528 81.1533 107.735 74.1099 115.774 79.1254C120.895 82.2833 125.202 86.5557 129.81 91.13C131.567 92.8793 132.819 94.8684 133.656 97.0046Z" fill="#C4C1C1"/>
</svg>
