<svg width="15" height="18" viewBox="0 0 15 18" fill="none" xmlns="http://www.w3.org/2000/svg">
<ellipse cx="7.64913" cy="5.06495" rx="3.98169" ry="3.98169" stroke="#939191" stroke-width="1.5" stroke-linecap="round" stroke-linejoin="round"/>
<path fill-rule="evenodd" clip-rule="evenodd" d="M1.33334 14.5844C1.33227 14.3045 1.39487 14.028 1.51641 13.7758C1.8978 13.0131 2.97331 12.6088 3.86576 12.4257C4.50939 12.2884 5.16192 12.1966 5.81847 12.1511C7.03403 12.0444 8.25661 12.0444 9.47217 12.1511C10.1287 12.1971 10.7812 12.2889 11.4249 12.4257C12.3173 12.6088 13.3928 12.9749 13.7742 13.7758C14.0186 14.2898 14.0186 14.8866 13.7742 15.4006C13.3928 16.2015 12.3173 16.5676 11.4249 16.743C10.782 16.8861 10.1292 16.9804 9.47217 17.0253C8.4828 17.1091 7.48882 17.1244 6.49734 17.071C6.26851 17.071 6.0473 17.071 5.81847 17.0253C5.16385 16.981 4.51359 16.8866 3.87339 16.743C2.97331 16.5676 1.90542 16.2015 1.51641 15.4006C1.39549 15.1455 1.33295 14.8667 1.33334 14.5844Z" stroke="#939191" stroke-width="1.5" stroke-linecap="round" stroke-linejoin="round"/>
</svg>
