<svg width="50" height="50" viewBox="0 0 50 50" fill="none" xmlns="http://www.w3.org/2000/svg">
<rect width="50" height="50" rx="25" fill="#F5F2F2"/>
<path d="M7.51855 39.5905C7.51855 39.5905 12.5977 33.1054 25.1302 33.1054C37.6628 33.1054 42.7441 39.5905 42.7441 39.5905M25.1302 25.1302C26.9432 25.1302 28.682 24.41 29.9639 23.128C31.2459 21.846 31.9661 20.1073 31.9661 18.2943C31.9661 16.4812 31.2459 14.7425 29.9639 13.4605C28.682 12.1785 26.9432 11.4583 25.1302 11.4583C23.3172 11.4583 21.5785 12.1785 20.2965 13.4605C19.0145 14.7425 18.2943 16.4812 18.2943 18.2943C18.2943 20.1073 19.0145 21.846 20.2965 23.128C21.5785 24.41 23.3172 25.1302 25.1302 25.1302Z" stroke="#C4C1C1" stroke-width="1.5" stroke-linecap="round" stroke-linejoin="round"/>
</svg>
